<svg height="16" viewBox="0 0 16 16" width="16" xmlns="http://www.w3.org/2000/svg"><g fill="#e0e0e0"><path d="m2 7 5.5677444-.00321-.293-.293c-.9426663-.9433329.4723337-2.3573329 1.415-1.414l2.0000006 2c.390382.3904999.390382 1.0235001 0 1.414l-2.0000006 2.000002c-.9426657.942118-2.3576657-.471881-1.415-1.4139994l.293-.293-5.5677444.0032074s-1 0-1-.9931799c0-1.0068201 1-1.0068201 1-1.0068201z"/><path d="m7.78125 2c-.103183 0-.2066538.00261-.3085938.00781-.1019399.00521-.2021652.013154-.3027343.023437-.1005691.010284-.1997578.023828-.2988282.039063-.09907.015234-.197478.032678-.2949218.052734-.097444.020057-.1953262.041655-.2910157.066406-.095689.024751-.1893959.052713-.2832031.082031-.093807.029318-.1874997.059993-.2792969.09375-.091797.033757-.1818251.069354-.2714843.1074219-.089659.038068-.1782315.078843-.265625.1210937-.087394.042251-.1747657.086506-.2597657.1328125-.085.046306-.1675214.094297-.25.1445313-.0824785.0502372-.1643112.1022197-.2441406.1562534-.0798293.0540336-.1573227.1102632-.234375.1679687s-.1543682.1164848-.2285156.1777344c-.0741474.0612495-.1456822.1247873-.2167969.1894531s-.1410302.1312646-.2089843.1992188c-.0679542.0679541-.134553.1378696-.1992188.2089843s-.1282036.1426495-.1894531.2167969c-.0612496.0741474-.1200289.1514633-.1777344.2285156s-.1139351.1545457-.1679687.234375c-.0540337.0798294-.1060162.1616621-.15625.2441406-.050234.082479-.098225.1650001-.1445313.25-.046306.085-.090562.1723721-.1328125.2597657-.042251.087394-.083026.1759657-.1210937.265625-.038068.089659-.0931962.238281-.1269531.3300781h2.1816413c.030666-.056693.015544-.025102.048828-.080075s.067696-.108938.1035156-.1621094c.03582-.053171.073054-.1049619.1113281-.15625.038275-.051288.078493-.1010675.1191406-.1503906.040647-.049323.082061-.097255.125-.1445313.042939-.047277.087664-.093523.1328125-.1386719.045149-.045149.091395-.089874.1386719-.1328125.047277-.042939.095208-.084353.1445313-.125.049323-.040647.099102-.080866.1503906-.1191406.051288-.038274.1030786-.075508.15625-.1113281.053171-.03582.1071363-.070232.1621094-.1035156.054973-.033284.1112756-.065037.1679687-.095703.056693-.030666.1135434-.059924.171875-.087891.0583311-.0279696.1178453-.0548953.1777338-.080081.059888-.025186.1202769-.047989.1816406-.070312.061364-.022323.1247426-.043121.1875-.0625.062757-.019379.1253837-.038334.1894531-.054687.064069-.016353.1300126-.031676.1953125-.044922.0653-.013246.1308169-.025099.1972657-.035156.066449-.010057.1336559-.016652.2011718-.023437.067516-.00679.1346235-.012191.203125-.015625.0685016-.0034355.1376257-.005861.2070313-.005861.069406 0 .1385297.00243.2070313.00586.068501.00343.135609.00884.203125.015625.067516.00679.1347231.013381.2011718.023437.066449.010057.1319657.02191.1972657.035156s.131243.028569.1953125.044922c.064069.016353.1266957.035309.1894531.054687.062757.019379.1261362.040177.1875.0625.061364.022323.1217521.045127.1816406.070312.059888.025186.1194027.052111.1777344.080078.058332.027967.1151818.057225.171875.087891.056693.030666.1129956.062419.1679686.095703.05497.033284.108938.067696.16211.1035156.05317.03582.104961.073054.15625.1113281.05129.038275.101067.078493.15039.1191406.04932.040647.09726.082061.144531.125.04728.042939.09352.087664.138672.1328125.04515.045149.08987.091395.132813.1386719.04294.047277.08435.095208.125.1445313.04065.049323.08087.099102.11914.1503906.03828.051288.07551.1030786.111329.15625.03582.053171.07023.1071363.103515.1621094.03328.054973.06504.1112756.0957.1679687.03067.056693.05992.1135434.08789.171875.02797.058332.05489.1178459.08008.1777344.02519.059888.04799.1202769.07031.1816406.02232.061364.04312.1247426.0625.1875.01938.062757.03833.1253837.05469.1894531.01635.064069.03168.1300126.04492.1953125.01325.0653.0251.1308169.03516.1972657.01006.066449.01665.1336559.02344.2011718.0068.067516.01219.1346235.01563.203125.0034.068503.0059.1376266.0059.2070322 0 .069406-.0024.1385297-.0059.2070313-.0034.068501-.0088.135609-.01563.203125-.0068.067516-.01338.1347231-.02344.2011718-.01006.066449-.02191.1319657-.03516.1972657s-.02857.131243-.04492.1953125c-.01635.064069-.03531.1266957-.05469.1894531-.01938.062757-.04018.1261362-.0625.1875-.02232.061364-.04513.1217521-.07031.1816406-.02519.059888-.05211.1194027-.08008.1777344-.02797.058332-.05722.1151818-.08789.171875-.03067.056693-.06242.1129956-.0957.1679686-.03328.05497-.0677.108938-.103515.16211-.03582.05317-.07305.104961-.111329.15625-.03827.05129-.07849.101067-.11914.15039-.04065.04932-.08206.09726-.125.144531-.04294.04728-.08766.09352-.132813.138672-.04515.04515-.0914.08987-.138672.132813-.04728.04294-.09521.08435-.144531.125-.04932.04065-.0991.08087-.15039.11914-.05129.03828-.103079.07551-.15625.111329-.05317.03582-.107137.07023-.16211.103515-.05497.03328-.1112755.06504-.1679686.0957-.056693.03067-.1135434.05992-.171875.08789-.058332.02797-.1178459.05489-.1777344.08008-.059888.02519-.1202769.04799-.1816406.07031-.061364.02232-.1247426.04312-.1875.0625-.062757.01938-.1253837.03833-.1894531.05469-.06407.01635-.1300126.03168-.1953125.04492-.0653.01325-.1308169.0251-.1972657.03516-.066449.01006-.1336559.01665-.2011718.02344-.067516.0068-.1346235.01219-.203125.01563-.0685016.003426-.1376257.005852-.2070313.005852-.069406 0-.1385297-.0024-.2070313-.0059-.068501-.0034-.135609-.0088-.203125-.01563-.067516-.0068-.1347231-.01338-.2011718-.02344-.066449-.01006-.1319657-.02191-.1972657-.03516s-.131243-.02857-.1953125-.04492c-.064069-.01635-.1266957-.03531-.1894531-.05469-.062757-.01938-.1261362-.04018-.1875-.0625-.061364-.02232-.1217521-.04513-.1816406-.07031-.059888-.02519-.1194027-.05211-.1777344-.08008-.058332-.02797-.1151818-.05722-.171875-.08789-.056693-.03067-.1129957-.06242-.1679687-.0957s-.108938-.0677-.1621094-.103515c-.053171-.03582-.1049619-.07305-.15625-.111329-.051288-.03827-.1010675-.07849-.1503906-.11914-.049323-.04065-.097255-.08206-.1445313-.125-.047277-.04294-.093523-.08766-.1386719-.132813-.045149-.04515-.089874-.0914-.1328125-.138672-.042939-.04728-.084353-.09521-.125-.144531-.040647-.04932-.080866-.0991-.1191406-.15039-.038274-.05129-.075508-.103079-.1113281-.15625-.03582-.05317-.0936695-.187167-.1269531-.24214h-2.2031254c.033757.0918.084979.240416.1230469.330075.038068.08966.078843.178232.1210937.265625.042251.08739.086506.174766.1328125.259766.046306.085.094297.167521.1445313.25.050234.08248.1022163.164311.15625.24414.054034.07983.1102632.157323.1679687.234375.057705.07705.1164848.154369.1777344.228516.06125.07415.1247873.145682.1894531.216797.064666.07112.1312646.14103.1992188.208984.067954.06795.1378696.134553.2089843.199219.071115.06467.1426495.128204.2167969.189453.074147.06125.1514633.120029.2285156.177735.077052.05771.1545457.113935.234375.167968.079829.05403.1616621.106016.2441406.15625.082479.05023.1650001.09822.25.144532.085.04631.1723721.09056.2597657.132812.087394.04225.1759657.08303.265625.121094.089659.03807.1796872.07367.2714843.107422.091797.03376.1854897.06443.2792969.09375.093807.02932.1875137.05728.2832031.08203.095689.02475.1935719.04635.2910157.06641.097444.02006.1958515.0375.2949218.05274.09907.01523.1982591.02878.2988282.03906s.2007944.01823.3027343.02344c.1019404.0052.2054112.007807.3085942.007807.1031831 0 .2066538-.0026.3085938-.0078.1019399-.0052.2021652-.01315.3027343-.02344.1005691-.01028.1997578-.02383.2988282-.03906.09907-.01524.197478-.03268.2949218-.05274.097444-.02006.1953262-.04166.2910157-.06641.095689-.02475.1893959-.05271.2832031-.08203.093807-.02932.1874997-.05999.2792971-.09375.0918-.03376.181825-.06936.271484-.107422.08966-.03807.178232-.07884.265625-.121094.08739-.04225.174766-.08651.259766-.132812.085-.04631.167521-.0943.25-.144532.08248-.05023.164311-.102216.24414-.15625.07983-.05403.157323-.110263.234375-.167968.07705-.05771.154369-.116485.228516-.177735.07415-.06125.145682-.124787.216797-.189453.07112-.06467.14103-.131265.208984-.199219.06795-.06795.134553-.137869.199219-.208984.06467-.07111.128204-.14265.189453-.216797.06125-.07415.120029-.151463.177735-.228516.05771-.07705.113935-.154545.167968-.234375.05403-.07983.106016-.161662.15625-.24414.05023-.08248.09822-.165.144532-.25.04631-.085.09056-.172372.132812-.259766.04225-.08739.08303-.175966.121094-.265625.03807-.08966.07367-.179687.107422-.271484.03376-.091797.06443-.1854899.09375-.2792971.02932-.093807.05728-.1875137.08203-.2832031.02475-.09569.04635-.1935719.06641-.2910157.02006-.097444.0375-.1958515.05274-.2949218.01523-.09907.02878-.1982591.03906-.2988282s.01823-.2007944.02344-.3027343c.0052-.101944.0078-.2054147.0078-.3085978 0-.103183-.0026-.2066538-.0078-.3085938-.005196-.1019399-.013146-.2021652-.023436-.3027343-.01028-.1005691-.02383-.1997578-.03906-.2988282-.01524-.09907-.03268-.197478-.05274-.2949218-.02006-.097444-.04166-.1953262-.06641-.2910157-.02475-.095689-.05271-.1893959-.08203-.2832031-.02932-.093807-.05999-.1874997-.09375-.2792969-.03376-.091797-.06936-.1818251-.107422-.2714843-.03807-.089659-.07884-.1782315-.121094-.265625-.04225-.087394-.08651-.1747657-.132812-.2597657-.04631-.085-.0943-.1675214-.144532-.25-.050238-.0824785-.10222-.1643112-.156254-.2441406-.054033-.0798293-.110263-.1573227-.167968-.234375-.057706-.0770523-.116485-.1543682-.177735-.2285156-.061249-.0741474-.124787-.1456822-.189453-.2167969s-.131265-.1410302-.199219-.2089843c-.067954-.0679542-.137869-.134553-.208984-.1992188s-.14265-.1282036-.216797-.1894531c-.074147-.0612496-.151463-.1200289-.228516-.1777344-.077052-.0577055-.154545-.1139351-.234375-.1679687-.07983-.054034-.161662-.1060162-.24414-.15625-.08248-.050234-.165-.098225-.25-.1445313s-.172372-.0905616-.259766-.1328125c-.087393-.0422509-.175966-.083026-.265625-.1210937-.089659-.0380678-.179687-.0736652-.271484-.1074219-.0917974-.0337567-.1854899-.0644322-.2792971-.09375s-.1875137-.0572802-.2832031-.0820313c-.0956895-.0247511-.1935719-.0463497-.2910157-.0664062-.0974438-.0200566-.1958515-.0375003-.2949218-.0527344-.0990704-.0152341-.1982591-.0287786-.2988282-.0390625s-.2007944-.0182316-.3027343-.0234375c-.10194-.0052059-.2054107-.0078125-.3085938-.0078125z"/></g></svg>