<svg height="16" viewBox="0 0 16 16" width="16" xmlns="http://www.w3.org/2000/svg"><g fill="#8eef97"><path d="m5.5 9c-.8284271 0-1.5.6715729-1.5 1.5v1.5h-2v2h12v-2h-2v-1.5c0-.8284271-.671573-1.5-1.5-1.5z"/><path d="m8.0079473 1.1757809a.28877347.26036935 0 0 0 -.1956436.076028l-2.2256494 2.0067965h-1.0355417a.28877347.26036935 0 0 0 -.2887735.2603695v2.0829545a.28877347.26036935 0 0 0 .2887735.2603694h1.0355417l2.2255769 2.0066662c.1819275.1639025.4928644.047776.4929363-.184081v-6.2489941a.28877347.26036935 0 0 0 -.2972202-.260109zm3.4737277.260109a.28877347.26036935 0 0 0 -.288773.2603694v5.7281253a.28877347.26036935 0 0 0 .288773.2603693.28877347.26036935 0 0 0 .288774-.2603693v-5.7281253a.28877347.26036935 0 0 0 -.288774-.2603694zm-1.7326398 1.562216a.28877347.26036935 0 0 0 -.2887735.2603693v2.6036934a.28877347.26036935 0 0 0 .2887735.2603695.28877347.26036935 0 0 0 .2887728-.2603695v-2.6036934a.28877347.26036935 0 0 0 -.2887728-.2603693z"/></g></svg>