<svg height="16" viewBox="0 0 16 16" width="16" xmlns="http://www.w3.org/2000/svg"><g fill="#8da5f3"><path d="m1 1v4h2v-2h2v-2zm10 0v2h2v2h2v-4zm-10 10v4h4v-2h-2v-2zm12 0v2h-2v2h4v-4z"/><path d="m9.5013568 4.8336996c.8337002-.8336996 2.5010992-.8336996 2.5010992-.8336996s0 1.6673993-.8337 2.5010991l-3.3347985 3.3347987.8336997.8336992s-.7987556.263057-1.2676073.10412c-.2749504-.0932-.8205511-.524878-.8205511-.524878l-1.6673993 1.667399s-.2485709.266572-.6744932-.151388c-.4183612-.410542-.1627602-.685865-.1627602-.685865l1.6673993-1.6673998s-.3861688-.5232891-.4796807-.8208366c-.1436595-.4571106.0702937-1.2559498.0702937-1.2559498l.8336998.8336997z" stroke-linejoin="round" stroke-width="1.41484"/></g></svg>